<?xml version="1.0" encoding="UTF-8" standalone="no"?>
<svg
   xmlns:dc="http://purl.org/dc/elements/1.1/"
   xmlns:cc="http://creativecommons.org/ns#"
   xmlns:rdf="http://www.w3.org/1999/02/22-rdf-syntax-ns#"
   xmlns:svg="http://www.w3.org/2000/svg"
   xmlns="http://www.w3.org/2000/svg"
   xmlns:sodipodi="http://sodipodi.sourceforge.net/DTD/sodipodi-0.dtd"
   xmlns:inkscape="http://www.inkscape.org/namespaces/inkscape"
   width="100%"
   height="100%"
   viewBox="0 0 876 876"
   version="1.1"
   xml:space="preserve"
   style="fill-rule:evenodd;clip-rule:evenodd;stroke-linejoin:round;stroke-miterlimit:1.41421;"
   id="svg12"
   sodipodi:docname="pc_logo_dark.svg"
   inkscape:version="0.92.2 5c3e80d, 2017-08-06"><metadata
     id="metadata18"><rdf:RDF><cc:Work
         rdf:about=""><dc:format>image/svg+xml</dc:format><dc:type
           rdf:resource="http://purl.org/dc/dcmitype/StillImage" /></cc:Work></rdf:RDF></metadata><defs
     id="defs16" /><sodipodi:namedview
     pagecolor="#ffffff"
     bordercolor="#666666"
     borderopacity="1"
     objecttolerance="10"
     gridtolerance="10"
     guidetolerance="10"
     inkscape:pageopacity="0"
     inkscape:pageshadow="2"
     inkscape:window-width="1927"
     inkscape:window-height="973"
     id="namedview14"
     showgrid="false"
     inkscape:zoom="2.1552511"
     inkscape:cx="177.6091"
     inkscape:cy="419.30717"
     inkscape:window-x="0"
     inkscape:window-y="0"
     inkscape:window-maximized="0"
     inkscape:current-layer="svg12" /><g
     id="g10"><path
       d="M0,437.619c0,-241.528 196.052,-437.619 437.534,-437.619c241.481,0 437.533,196.091 437.533,437.619c0,241.529 -196.052,437.619 -437.533,437.619c-241.482,0 -437.534,-196.09 -437.534,-437.619Z"
       style="fill:#ecf0f1;"
       id="path2" /><path
       d="M562.305,328.826c-31.661,-37.231 -78.064,-58.684 -126.931,-58.684c-91.969,0 -166.636,74.681 -166.636,166.668c0,91.987 74.667,166.669 166.636,166.669c39.56,0 77.83,-14.077 107.964,-39.713l-64.266,-75.571c-12.196,10.376 -27.686,16.073 -43.698,16.073c-37.224,0 -67.445,-30.227 -67.445,-67.458c0,-37.231 30.221,-67.458 67.445,-67.458c19.779,0 38.56,8.683 51.375,23.752l75.556,-64.278Z"
       style="fill:#16a085;"
       id="path4" /><rect
       x="130"
       y="436"
       width="139"
       height="422.932"
       style="fill:#2a3e50;"
       id="rect6" /><path
       d="M297.36,708.985c42.757,21.671 90.017,32.964 137.95,32.964c168.438,0 305.187,-136.777 305.187,-305.247c0,-168.471 -136.749,-305.247 -305.187,-305.247c-168.55,0 -305.187,136.664 -305.187,305.247l138.896,0c0,-91.858 74.451,-166.324 166.291,-166.324c91.779,0 166.291,74.527 166.291,166.324c0,91.796 -74.512,166.323 -166.291,166.323c-26.118,0 -51.869,-6.153 -75.166,-17.961l-62.784,123.921Z"
       style="fill:#2a3e50;"
       id="path8" /></g><g
     inkscape:groupmode="layer"
     id="layer1"
     inkscape:label="Layer 1"
     style="display:inline" /><rect
     style="fill:#2a3e50;fill-opacity:1;stroke:#2a3e50;stroke-opacity:1"
     id="rect3712"
     width="104.98738"
     height="81.365219"
     x="131.23422"
     y="421.9296" /><rect
     style="fill:#2a3e50;fill-opacity:1;stroke:#2a3e50;stroke-opacity:1"
     id="rect3714"
     width="68.241798"
     height="125.98486"
     x="196.85133"
     y="403.55679" /></svg>