<?xml version="1.0" standalone="no"?>
<!DOCTYPE svg PUBLIC "-//W3C//DTD SVG 20010904//EN"
 "http://www.w3.org/TR/2001/REC-SVG-20010904/DTD/svg10.dtd">
<svg version="1.0" xmlns="http://www.w3.org/2000/svg"
 width="728.000000pt" height="728.000000pt" viewBox="0 0 728.000000 728.000000"
 preserveAspectRatio="xMidYMid meet">
<metadata>
Created by potrace 1.11, written by Peter Selinger 2001-2013
</metadata>
<g transform="translate(0.000000,728.000000) scale(0.100000,-0.100000)"
fill="#000000" stroke="none">
<path d="M3427 7274 c-2 -2 -30 -6 -63 -8 -32 -3 -79 -7 -104 -11 -25 -3 -61
-8 -80 -10 -19 -3 -69 -11 -110 -19 -82 -17 -94 -19 -160 -35 -25 -7 -54 -14
-64 -16 -50 -12 -228 -70 -296 -97 -98 -39 -113 -45 -125 -48 -36 -10 -307
-156 -412 -222 -344 -215 -706 -568 -904 -880 -18 -29 -36 -55 -39 -58 -22
-18 -248 -445 -242 -457 1 -2 -7 -23 -18 -47 -10 -24 -16 -47 -13 -50 4 -3 2
-6 -3 -6 -6 0 -18 -28 -29 -62 -10 -35 -21 -67 -25 -73 -4 -5 -10 -21 -13 -35
-3 -14 -13 -52 -22 -85 -9 -33 -18 -67 -20 -75 -2 -8 -10 -42 -18 -75 -15 -57
-21 -90 -32 -160 -3 -16 -7 -41 -10 -54 -2 -13 -7 -46 -10 -75 -3 -28 -9 -69
-12 -91 -4 -22 -8 -1049 -10 -2282 l-4 -2242 695 0 696 -1 -1 1871 c0 1029 2
1874 5 1877 3 3 6 -6 6 -19 0 -14 4 -29 8 -34 5 -6 15 -30 22 -55 17 -54 84
-200 117 -252 13 -21 20 -38 16 -38 -5 0 -3 -4 3 -8 6 -4 28 -34 49 -67 22
-33 42 -62 45 -65 3 -3 17 -21 30 -40 47 -67 169 -193 250 -258 25 -20 50 -41
55 -47 15 -16 210 -145 221 -145 5 0 19 -8 32 -18 l22 -17 -117 -233 c-65
-128 -188 -370 -273 -540 -85 -169 -159 -310 -165 -314 -5 -4 -7 -8 -2 -8 4 0
-4 -18 -17 -39 -14 -21 -22 -42 -18 -46 11 -10 198 -96 247 -113 17 -6 68 -25
115 -42 92 -33 320 -99 360 -104 14 -2 61 -10 105 -19 121 -24 162 -30 330
-43 160 -12 454 -7 555 11 14 2 50 7 80 10 30 3 89 12 130 20 41 8 86 17 100
19 33 6 58 13 98 25 18 5 35 10 37 10 3 1 6 1 8 2 1 0 11 2 22 4 103 20 533
189 568 224 6 6 15 11 21 11 13 0 189 100 197 112 3 5 9 9 13 9 9 -1 113 68
216 145 229 170 475 418 628 634 26 36 49 67 52 70 7 7 54 80 112 173 49 80
190 362 203 407 4 14 11 30 15 35 8 11 39 103 41 120 0 6 4 15 9 20 8 11 86
280 95 330 11 66 16 92 26 145 16 86 27 182 35 300 11 163 6 393 -11 535 -2
22 -7 64 -10 93 -2 29 -7 57 -9 61 -3 4 -7 25 -10 47 -3 21 -8 50 -10 64 -18
84 -39 177 -44 190 -3 8 -6 20 -7 25 -2 6 -8 30 -16 55 -7 25 -14 50 -15 55
-13 45 -84 232 -114 300 -91 204 -170 343 -307 545 -25 36 -101 137 -116 152
-6 7 -30 36 -52 63 -68 86 -295 306 -405 393 -58 46 -114 91 -124 99 -10 8
-60 42 -110 74 -50 32 -96 62 -101 66 -62 46 -485 252 -485 236 0 -3 -6 -1
-12 5 -32 26 -377 123 -543 152 -27 5 -61 11 -75 14 -14 3 -50 7 -80 11 -30 3
-68 8 -85 11 -37 6 -512 14 -518 8z m1539 -2041 c33 -42 104 -153 104 -162 0
-5 4 -11 9 -13 13 -5 105 -202 134 -288 30 -86 56 -182 62 -225 2 -16 6 -40 9
-53 9 -41 20 -185 19 -267 0 -84 -11 -244 -18 -255 -2 -4 -7 -29 -11 -56 -3
-27 -8 -52 -11 -57 -2 -4 -6 -20 -9 -35 -3 -15 -14 -56 -26 -92 -75 -234 -209
-462 -372 -635 l-85 -90 -33 37 c-18 20 -47 54 -65 75 -17 21 -41 49 -53 63
-22 25 -49 57 -169 199 -35 42 -68 78 -72 79 -5 2 -9 8 -9 12 0 5 -10 20 -22
32 -13 13 -38 41 -56 63 -98 117 -120 142 -149 175 -17 20 -42 36 -55 37 -13
1 -55 -19 -98 -47 -71 -46 -180 -97 -180 -84 0 4 -6 2 -12 -3 -30 -22 -264
-25 -303 -4 -5 3 -19 7 -30 8 -88 14 -283 157 -326 240 -8 16 -17 30 -20 33
-11 9 -56 114 -65 150 -4 19 -9 42 -12 50 -2 8 -5 51 -6 95 -4 106 17 210 55
275 5 8 15 29 23 46 16 37 35 61 96 123 78 81 193 147 290 168 212 46 416 -12
574 -161 63 -61 92 -69 131 -37 24 18 129 107 149 126 6 6 67 58 136 115 69
58 130 110 136 115 21 18 98 84 124 105 24 20 87 75 155 133 36 31 44 33 61
10z"/>
</g>
</svg>
